# xmcd
#
# Track frame offsets:
#	150
#	14412
#	26420
#	40635
#	51149
#	64152
#	77848
#	88806
#	104173
#	117766
#
# Disc length: 1680 seconds
#
# Revision: 0
# Processed by: cddbd v1.5.2PL0 Copyright (c) Steve Scherf et al.
# Submitted via: dBpowerAMP V4.0
#
DISCID=7d068e0a
DTITLE=Various [CD3 of 4) - Best Of Bluegrass
DYEAR=2006
DGENRE=Bluegrass
TTITLE0=01_Will The Circle Be Unbroken (Traditional)
TTITLE1=02_Make The World Go Away (H.Cochran)
TTITLE2=03_Backseat Driver (Steve Ivey)
TTITLE3=04_Behind Closed Doors (K. O'Dell)
TTITLE4=05_Turkey In The Straw (Traditional)
TTITLE5=06_Wayfaring Stranger (Traditional)
TTITLE6=07_Going Up To Cripple Creek (Traditional)
TTITLE7=08_Salty Dog (Traditional)
TTITLE8=09_Funky Chicken (Steve Ivey)
TTITLE9=10_I Still Do (Steve Ivey)
EXTD=Madacy Label [CD3 of 4)
EXTT0=
EXTT1=
EXTT2=
EXTT3=
EXTT4=
EXTT5=
EXTT6=
EXTT7=
EXTT8=
EXTT9=
PLAYORDER=
